<?xml version="1.0" encoding="UTF-8" standalone="no"?>
<svg
   viewBox="0 2 24 20"
   version="1.1"
   id="svg1"
   sodipodi:docname="barcode_scan.svg"
   inkscape:export-filename="barcode_scan.png"
   inkscape:export-xdpi="120"
   inkscape:export-ydpi="120"
   inkscape:version="1.3.2 (091e20ef0f, 2023-11-25, custom)"
   xmlns:inkscape="http://www.inkscape.org/namespaces/inkscape"
   xmlns:sodipodi="http://sodipodi.sourceforge.net/DTD/sodipodi-0.dtd"
   xmlns="http://www.w3.org/2000/svg"
   xmlns:svg="http://www.w3.org/2000/svg">
  <defs
     id="defs1" />
  <sodipodi:namedview
     id="namedview1"
     pagecolor="#ffffff"
     bordercolor="#000000"
     borderopacity="0.25"
     inkscape:showpageshadow="2"
     inkscape:pageopacity="0.0"
     inkscape:pagecheckerboard="0"
     inkscape:deskcolor="#d1d1d1"
     inkscape:zoom="43.8"
     inkscape:cx="12.009132"
     inkscape:cy="10.011416"
     inkscape:window-width="1916"
     inkscape:window-height="1019"
     inkscape:window-x="0"
     inkscape:window-y="0"
     inkscape:window-maximized="0"
     inkscape:current-layer="svg1" />
  <path
     d="M 2 2 C 0.8954 2 0 2.8954 0 4 L 0 7 A 1 1 0 0 0 1 8 A 1 1 0 0 0 2 7 L 2 4 L 5 4 A 1 1 0 0 0 6 3 A 1 1 0 0 0 5 2 L 2 2 z M 19 2 A 1 1 0 0 0 18 3 A 1 1 0 0 0 19 4 L 22 4 L 22 7 A 1 1 0 0 0 23 8 A 1 1 0 0 0 24 7 L 24 4 C 24 2.8954 23.1046 2 22 2 L 19 2 z M 4 6 L 4 18 L 6 18 L 6 6 L 4 6 z M 7 6 L 7 18 L 8 18 L 8 6 L 7 6 z M 9 6 L 9 18 L 12 18 L 12 6 L 9 6 z M 13 6 L 13 18 L 14 18 L 14 6 L 13 6 z M 16 6 L 16 18 L 18 18 L 18 6 L 16 6 z M 19 6 L 19 18 L 20 18 L 20 6 L 19 6 z M 1 16 A 1 1 0 0 0 0 17 L 0 20 C 0 21.1046 0.8954 22 2 22 L 5 22 A 1 1 0 0 0 6 21 A 1 1 0 0 0 5 20 L 2 20 L 2 17 A 1 1 0 0 0 1 16 z M 23 16 A 1 1 0 0 0 22 17 L 22 20 L 19 20 A 1 1 0 0 0 18 21 A 1 1 0 0 0 19 22 L 22 22 C 23.1046 22 24 21.1046 24 20 L 24 17 A 1 1 0 0 0 23 16 z"
     fill="#000000"
     id="path1" />
</svg>
